<?xml version="1.0" standalone="no"?>
<!DOCTYPE svg PUBLIC "-//W3C//DTD SVG 20010904//EN"
 "http://www.w3.org/TR/2001/REC-SVG-20010904/DTD/svg10.dtd">
<svg version="1.0" xmlns="http://www.w3.org/2000/svg"
 width="1000.000000pt" height="1000.000000pt" viewBox="0 0 1000.000000 1000.000000"
 preserveAspectRatio="xMidYMid meet">
<metadata>
Created by potrace 1.11, written by Peter Selinger 2001-2013
</metadata>
<g transform="translate(0.000000,1000.000000) scale(0.100000,-0.100000)"
fill="#000000" stroke="none">
<path d="M0 5000 l0 -5000 5000 0 5000 0 0 5000 0 5000 -5000 0 -5000 0 0
-5000z m3040 2348 l1 -653 22 30 c106 144 225 249 352 310 146 71 193 80 395
79 156 -1 186 -4 275 -28 248 -66 503 -245 638 -449 140 -211 209 -490 193
-777 -20 -336 -132 -598 -348 -811 -373 -366 -912 -420 -1313 -130 -27 20 -87
69 -132 109 l-83 73 0 -166 0 -165 -245 0 -245 0 0 1615 0 1615 245 0 245 0 0
-652z m3556 -262 c348 -87 633 -319 744 -607 60 -154 72 -244 74 -519 l1 -245
-909 -3 -908 -2 7 -47 c28 -187 157 -341 367 -437 124 -57 194 -70 363 -69
127 0 165 4 247 26 128 34 241 94 327 173 38 35 71 64 73 64 2 0 66 -67 141
-149 l136 -149 -66 -63 c-164 -153 -390 -261 -633 -303 -448 -76 -837 34
-1124 320 -230 228 -339 536 -323 913 6 151 25 262 62 371 129 381 472 667
890 745 128 23 401 14 531 -19z m-76 -4016 l0 -710 -105 0 -105 0 0 77 0 76
-37 -40 c-88 -94 -181 -127 -337 -121 -91 3 -109 7 -169 36 -81 40 -170 121
-214 194 -88 146 -96 394 -18 548 49 97 155 191 263 233 105 42 252 40 350 -3
23 -11 69 -45 102 -76 l60 -57 0 276 0 277 105 0 105 0 0 -710z m-3162 644
c-2 -8 -176 -384 -388 -834 l-385 -819 -163 -1 -162 0 14 33 c8 17 168 356
356 752 188 396 359 757 380 803 l39 82 156 0 c136 0 156 -2 153 -16z m-1258
-418 l0 -153 -287 -132 c-159 -73 -291 -136 -295 -140 -4 -3 125 -69 287 -145
l295 -139 0 -157 0 -157 -480 226 -481 226 3 140 3 140 470 222 c259 122 473
222 478 222 4 1 7 -68 7 -153z m6265 -70 l466 -220 -3 -144 -3 -144 -475 -223
-475 -224 -3 146 c-1 81 -1 152 2 158 2 6 137 74 299 150 163 77 293 142 290
145 -2 3 -136 66 -296 140 l-292 135 -3 153 c-2 131 0 153 12 150 8 -2 224
-102 481 -222z m-4350 152 c28 -6 73 -22 100 -36 59 -29 145 -90 145 -102 0
-7 -64 -90 -110 -143 -4 -5 -36 10 -71 33 -149 96 -305 91 -433 -14 -65 -53
-99 -125 -104 -221 -5 -110 21 -179 97 -256 128 -127 305 -134 459 -18 l56 43
58 -64 c32 -36 58 -68 58 -72 0 -12 -112 -94 -167 -122 -78 -39 -156 -56 -258
-56 -106 0 -170 15 -255 61 -120 64 -210 178 -245 310 -19 71 -19 220 0 294
72 274 360 430 670 363z m980 0 c160 -34 303 -162 366 -326 27 -71 36 -213 19
-295 -28 -137 -134 -279 -256 -344 -91 -48 -155 -63 -269 -63 -162 0 -280 46
-384 151 -226 226 -195 609 64 794 130 93 284 121 460 83z m2295 -5 c88 -24
166 -71 229 -139 85 -91 103 -143 109 -316 l4 -138 -402 0 -402 0 6 -31 c17
-86 88 -163 185 -200 47 -17 72 -20 156 -17 113 5 165 23 229 79 l39 33 59
-63 60 -63 -33 -34 c-43 -44 -151 -100 -230 -119 -74 -17 -233 -19 -299 -4
-80 18 -172 71 -235 134 -106 106 -151 237 -142 410 9 173 67 287 192 382 137
104 302 134 475 86z"/>
<path d="M3550 6674 c-113 -29 -199 -81 -295 -178 -99 -99 -153 -189 -195
-321 -28 -87 -39 -306 -21 -410 61 -351 338 -595 676 -595 114 0 206 23 314
76 79 39 109 61 180 133 129 130 185 241 212 422 58 397 -173 779 -527 869
-93 24 -261 26 -344 4z"/>
<path d="M6124 6685 c-197 -43 -390 -177 -463 -322 -34 -68 -61 -166 -61 -225
l0 -38 666 0 666 0 -7 63 c-9 82 -32 171 -57 221 -75 150 -221 258 -405 300
-87 19 -252 20 -339 1z"/>
<path d="M5902 3193 c-60 -21 -145 -103 -179 -171 -25 -50 -28 -68 -28 -152 0
-116 22 -173 93 -243 121 -119 292 -128 411 -21 78 70 104 128 109 244 5 127
-18 191 -97 271 -85 85 -199 111 -309 72z"/>
<path d="M2685 2901 c-208 -440 -379 -803 -379 -808 -1 -4 56 -9 125 -11 93
-2 129 1 136 10 12 16 753 1591 753 1601 0 4 -58 7 -128 7 l-128 0 -379 -799z"/>
<path d="M1617 3198 l-448 -211 3 -125 3 -125 440 -208 c242 -114 446 -208
453 -208 9 -1 12 30 12 123 l0 123 -315 149 c-173 82 -311 152 -307 156 4 3
145 71 315 149 l307 142 0 123 c0 68 -3 124 -7 124 -5 0 -210 -95 -456 -212z"/>
<path d="M7902 3285 l3 -126 305 -140 c168 -78 308 -144 312 -147 4 -4 -135
-74 -308 -156 l-314 -149 0 -128 0 -128 73 34 c39 19 243 115 452 214 l380
179 3 124 3 125 -449 211 c-247 117 -452 212 -456 212 -4 0 -5 -56 -4 -125z"/>
<path d="M4774 3199 c-154 -37 -253 -182 -242 -354 9 -131 75 -232 187 -283
79 -37 193 -37 272 0 71 32 124 86 158 157 22 48 26 69 26 151 0 82 -4 103
-26 151 -51 109 -150 176 -271 184 -34 2 -81 0 -104 -6z"/>
<path d="M7079 3210 c-131 -22 -249 -139 -249 -246 l0 -24 295 0 295 0 0 38
c0 50 -40 131 -81 166 -67 57 -165 82 -260 66z"/>
</g>
</svg>
